<svg width="45" height="41" viewBox="0 0 45 41" fill="none" xmlns="http://www.w3.org/2000/svg">
<path d="M40.7812 6.4375H23.9062L18.2812 0.8125H4.21875C1.88965 0.8125 0 2.70215 0 5.03125V35.9688C0 38.2979 1.88965 40.1875 4.21875 40.1875H40.7812C43.1104 40.1875 45 38.2979 45 35.9688V10.6562C45 8.32715 43.1104 6.4375 40.7812 6.4375ZM29.5312 25.3428H24.6094V30.2646C24.5303 31.5127 23.6689 32.4531 22.5 32.4531C21.3337 32.4531 20.4697 31.5092 20.4697 30.4229V25.3428H15.3896C14.2998 25.3428 13.3594 24.4814 13.3594 23.3125C13.3594 22.1471 14.3033 21.2822 15.3896 21.2822H20.3115V16.2021C20.3906 15.1123 21.3311 14.1719 22.5 14.1719C23.6689 14.1719 24.5303 15.1158 24.5303 16.2021V21.2031H29.4521C30.7002 21.2031 31.6406 22.1436 31.6406 23.3125C31.6406 24.4814 30.7002 25.3428 29.5312 25.3428Z" fill="#3E5E7E"/>
</svg>
