<svg xmlns="http://www.w3.org/2000/svg" viewBox="0 0 9556.24503 2968.26275">
  <defs>
    <style>
      .cls-1 {
        fill: #1c2d59;
      }

      .cls-2 {
        fill: #1c2d5a;
      }

      .cls-3 {
        fill: #1d2d5a;
      }
    </style>
  </defs>
  <g id="Layer_2" data-name="Layer 2">
    <g id="Layer_1-2" data-name="Layer 1">
      <g>
        <path class="cls-1" d="M6.82838,1391.42532c5.668-94.00437,19.655-186.71834,43.17635-277.95672,62.72084-243.2918,180.34815-456.65537,351.13865-640.75607Q610.03879,247.53712,891.79289,124.29147a1456.57411,1456.57411,0,0,1,425.82458-114.532C1446.9572-4.7767,1576.02762-3.257,1704.65358,15.54336a1464.50346,1464.50346,0,0,1,427.974,131.59971c170.2,82.28928,319.778,192.48885,447.05014,331.89334,182.91948,200.35613,304.02479,433.0163,359.83777,699.00011,14.61382,69.64471,23.34153,139.93176,28.17313,210.91482a1434.57588,1434.57588,0,0,1-7.34171,274.81616c-33.56694,269.96464-132.67434,513.98652-300.73468,728.27826q-323.65519,412.69-835.33106,535.1815c-67.73607,16.12575-136.21622,27.66606-205.77375,32.4029-13.7127.93392-27.36436,2.76641-41.04436,4.18424q-27.65668,2.2239-55.31281,4.44835h-68.97961q-27.67016-2.20707-55.34017-4.41358c-83.13565-6.4115-165.572-17.15359-246.8612-36.45089q-497.8084-118.17421-819.69995-515.23991C135.8086,2170.37693,28.62138,1892.52562,7.24168,1582.09337Q3.62085,1542.50215,0,1502.91076V1470.7557Q3.41418,1431.09044,6.82838,1391.42532Zm2543.59021,780.0515c-3.35916-25.7081-5.48559-51.64848-10.29249-77.08363-19.85606-105.06244-42.17086-209.68554-60.51126-315.004-28.03812-161.00744-52.4496-322.64432-80.40885-483.6662-30.82836-177.54751-63.67409-354.74793-96.17824-532.00127-10.43212-56.88956-29.66311-110.68259-63.29713-158.44976-55.10005-78.25327-143.51415-111.79952-235.75782-86.78734-122.579,33.23767-204.10975,111.75918-241.27625,232.62446-29.16842,94.85557-53.67238,191.16052-79.41568,287.0447-43.373,161.5501-85.88658,323.33066-129.25426,484.88217-8.10909,30.207-17.47758,60.18335-28.323,89.50639a148.55358,148.55358,0,0,1-23.92408,41.311c-11.89783,14.63755-26.85071,14.60825-39.74271,1.47573a95.353,95.353,0,0,1-18.16286-26.11617,312.2247,312.2247,0,0,1-17.79293-47.06906q-49.06673-175.39659-97.15121-351.06653Q1264.68707,994.4778,1201.696,757.53954c-19.70632-73.81732-61.43083-132.56518-121.01389-179.29835-48.67889-38.18074-103.4657-63.37123-165.53-66.78025-89.11944-4.89512-156.2604,34.00347-203.01587,109.41126a373.99643,373.99643,0,0,0-48.02757,120.89625c-16.96262,80.7091-32.9719,161.65062-47.48454,242.83311-20.02425,112.01456-38.48274,224.31055-57.2657,336.54373-19.54061,116.76059-37.76294,233.7487-58.22835,350.34556-21.25672,121.10506-44.68764,241.828-66.78829,362.78711-7.40588,40.53294-16.5879,81.05269-19.7361,121.97926-4.87,63.3099,7.65221,123.917,47.26037,175.51266,45.81232,59.67757,106.30618,85.7629,181.621,71.25656,45.72783-8.80782,81.02487-34.89119,109.595-70.64451,33.83366-42.34034,52.36821-91.56277,60.77243-144.30511q35.86749-225.09356,69.75892-450.499,26.27049-176.8986,36.89214-355.55105c1.69972-28.17787,4.435-56.41364,8.93948-84.26039a234.28822,234.28822,0,0,1,15.64019-54.8025c10.77786-25.03381,26.23828-26.20856,42.54922-5.009a95.58386,95.58386,0,0,1,11.88219,19.55524c7.35589,16.76486,15.56111,33.415,20.51158,50.93269,26.992,95.51458,53.96351,191.05034,79.33238,287.00356,47.82774,180.89885,94.10809,362.20633,142.06206,543.07125,11.91509,44.93922,24.13416,90.414,42.60072,132.8705,34.12816,78.46474,94.8342,124.34334,182.42535,129.14075,74.24964,4.06648,136.98387-19.55412,183.20311-80.12663,24.49343-32.09968,40.61478-68.38249,50.82278-107.04339,51.27721-194.208,101.53864-388.68432,153.14424-582.80456,29.0358-109.222,59.72367-218.00945,90.26068-326.8266,7.02581-25.03633,16.48076-49.52551,33.79218-69.66981,13.1338-15.2831,23.74332-14.64652,35.32679,1.36232a54.64067,54.64067,0,0,1,8.17828,16.31682c4.49128,15.3682,10.19692,30.77522,11.77588,46.53117,6.5509,65.3744,10.90619,130.971,17.6641,196.32129,8.95491,86.59349,17.23859,173.34512,29.693,259.46857,20.7604,143.562,44.23048,286.73917,67.33638,429.95337,8.74749,54.219,27.20605,104.88678,61.82371,148.69878,83.53042,105.71542,230.50408,97.83731,301.66372-16.39294C2538.68846,2272.08446,2548.8263,2223.27207,2550.41859,2171.47682Z"/>
        <path class="cls-2" d="M3471.17746,1341.492H3279.1929c3.78523-23.0286,6.84519-44.69909,10.96219-66.16715,19.21919-100.21709,38.82657-200.35988,58.11538-300.56372q46.17264-239.86648,92.16733-479.76717a102.39921,102.39921,0,0,1,4.15292-15.45332c4.45129-12.30448,11.5592-20.46374,26.48906-20.44026,86.55629.13616,173.1179-.78678,259.66717-.08074,22.72628.18539,27.593,6.29328,34.25263,32.04862q19.16181,74.10434,37.29407,148.47277c9.88439,40.65672,18.81923,81.54306,28.56131,122.23545,2.27182,9.489,6.10842,18.60415,10.31916,31.15049,16.95945-25.42954,32.481-48.51275,47.81-71.72282,48.00589-72.686,95.52341-145.69795,144.03649-218.04434,36.46943-54.386,27.14865-44.11007,84.454-45.27427,29.853-.60647,59.70262-2.36976,89.54607-2.21128,39.02726.20723,78.04863,1.76108,117.06747,2.89994,2.0846.06084,4.12457,1.64276,9.17511,3.78447-46.6,298.39151-95.71764,596.88645-143.51359,896.18122-6.86287.71312-12.05711,1.59811-17.27128,1.73983-38.99892,1.0605-78.006,2.89693-117.00123,2.69113-45.05737-.23761-90.10491-2.31487-138.04933-3.67564,11.38236-53.49023,21.891-106.80256,34.20884-159.69462,13.29492-57.08905,28.71541-113.68276,42.2023-170.7299a129.05261,129.05261,0,0,0,2.51348-40.57c-1.967-21.93494-20.61389-30.85547-41.21908-22.23326-18.12511,7.5845-29.01012,22.34191-38.0185,38.12813-18.92,33.15577-37.49167,66.59163-54.33015,100.833-29.67589,60.34829-57.38028,121.66447-87.09294,181.994a455.94573,455.94573,0,0,1-39.68124,66.63817c-12.24686,16.84084-37.62892,16.92565-51.99013,2.6223a38.79229,38.79229,0,0,1-9.85969-17.53083c-5.87236-24.35685-12.40095-48.75015-15.55662-73.52741-7.48626-58.77843-13.07205-117.79663-19.661-176.69169-2.96621-26.51346-5.47913-53.1453-10.16562-79.3725a144.66254,144.66254,0,0,0-14.61214-42.85776c-7.29063-13.46911-19.39658-22.76323-36.58732-23.54875-26.70939-1.22031-47.02155,14.61834-53.90829,45.04766-5.37359,23.74326-10.07945,47.71124-13.51384,71.80251-6.63272,46.52513-12.22412,93.19943-18.11585,139.82837-3.015,23.862-5.26469,47.83012-8.74342,71.62119C3479.89927,1294.28852,3475.37782,1317.35917,3471.17746,1341.492Z"/>
        <path class="cls-2" d="M4554.90517,2518.35715c-31.97184-1.77082-64.356-.90644-95.83469-5.82609-81.51-12.738-152.033-48.05651-205.24018-112.35233-26.86769-32.46627-38.69437-72.53519-45.79049-113.48658-9.93266-57.32148-11.67821-114.739-6.98161-173.11367,8.3196-103.41317,31.50255-202.57116,73.45813-297.30407,32.91408-74.31848,76.50658-141.34959,142.43886-190.71039,21.5988-16.17,46.9789-27.69465,71.54783-39.42589,43.88329-20.95358,91.1959-32.876,138.62388-40.33022,55.9376-8.79156,112.70348-15.64632,169.81992-9.22908,25.40592,2.85473,51.019,4.31756,76.23292,8.32783,43.32221,6.89079,85.337,19.32828,122.939,42.18291,30.24988,18.38637,56.38556,41.9352,71.8605,75.22071,22.06585,47.46059,34.83561,97.43554,42.20343,149.042,5.59449,39.18407,5.24364,78.5187,4.17425,117.90029-3.69261,136.00154-41.20252,261.71588-114.957,376.36431-22.8961,35.591-51.83464,65.84108-81.82853,95.54739-31.16152,30.86339-68.35764,50.25405-107.85812,67.57446C4728.32535,2504.42613,4643.43434,2519.49545,4554.90517,2518.35715Zm272.973-617.892c-3.12-26.33613-4.753-51.42278-9.29945-75.97113-7.65523-41.33156-30.92519-73.0285-67.21808-93.72919-46.86213-26.72906-87.39327-19.77336-124.76256,10.0971-30.91,24.7076-53.40868,57.71653-72.89059,92.44945-46.442,82.79869-57.38955,174.26907-66.16581,266.3288-2.02005,21.1926-3.43635,42.45038-5.85552,63.59546-3.27665,28.63922,1.29393,56.28215,12.16012,82.42706,20.72168,49.85929,60.72626,75.3951,113.08183,78.008,25.95241,1.295,51.55985-8.81371,73.76884-24.2719,34.53977-24.04074,56.01675-57.95708,71.13972-96.07519,25.30937-63.79564,47.55541-128.72664,60.89326-196.14956C4819.74748,1971.69941,4823.02862,1935.48712,4827.87819,1900.46514Z"/>
        <path class="cls-2" d="M5535.06633,457.88594c77.40391-.0122,154.81287.518,232.20948-.2489,35.59456-.35267,70.44925,6.0979,102.04863,19.67117,56.93176,24.45456,98.859,66.47275,116.58386,127.3905,8.25476,28.37217,15.14655,58.36691,15.06066,87.604-.09374,32.15709-6.76772,64.80939-14.40948,96.318-13.84364,57.08513-38.61074,109.36283-78.9353,153.12387-19.32641,20.9732-40.91286,39.16437-68.77921,47.94507-10.61527,3.34467-21.59542,7.92591-32.39033,7.8758-37.38417-.17313-57.65142,41.371-43.188,75.84509a315.08765,315.08765,0,0,0,22.98366,44.8725c30.76127,49.26911,62.35616,98.01843,93.5115,147.0432,11.05033,17.38882,22.3527,34.66185,32.45826,52.59571,12.70464,22.54566,4.85013,38.4687-20.63214,42.8042a179.946,179.946,0,0,1-29.60768,2.4566c-77.40391.193-154.80782.05748-232.21173.13108-27.79056.02635-33.02859-2.51156-42.11472-28.89114-23.35922-67.82105-45.69956-135.99158-68.79044-203.90585-11.27992-33.1754-22.82424-66.27972-35.19712-99.0593-8.5854-22.74613-16.82052-27.69277-39.31412-27.49314-17.51491.15546-23.98624,4.057-27.17532,21.38759-4.60594,25.02715-7.37231,50.39529-10.80781,75.63363-4.56945,33.56553-9.34043,67.10793-13.45069,100.7303-5.14821,42.10161-10.40645,84.2112-14.26073,126.44065-2.16179,23.6841-13.12566,35.22791-37.52226,35.20842q-105.70671-.08453-211.41343-.09308a97.054,97.054,0,0,1-15.8432-1.51021c-15.69162-2.63464-21.04248-8.23937-20.92011-24.04017a187.83445,187.83445,0,0,1,3.2149-31.92236c18.88912-104.0653,38.73535-207.96281,56.8571-312.16009,13.18348-75.79975,23.5394-152.08692,36.34678-227.95613,11.11151-65.82026,23.87566-131.36239,35.95158-197.01958,4.13047-22.4563,8.065-44.95714,12.76359-67.2961a86.38589,86.38589,0,0,1,8.36535-23.48946c6.052-11.04811,15.33123-18.07365,28.9812-18.15556,10.67422-.064,21.34169-1.71512,32.01366-1.7379Q5421.2598,457.7415,5535.06633,457.88594Zm168.26412,285.90188c.34131-3.00325,1.12215-6.0309.95712-9.00625-2.374-42.78-15.3638-79.79691-57.39938-99.4303-22.22246-10.37958-45.091-12.50366-70.296-9.12226-44.12045,5.91889-73.16229,27.29317-85.64407,69.58605a751.21745,751.21745,0,0,0-18.63707,77.42666c-4.42462,24.21176-4.30449,49.3048-9.419,73.32261-4.625,21.7171,1.80476,37.61533,17.61428,50.8373,22.61709,18.9162,49.006,25.4362,78.24145,22.85561,25.39525-2.24156,46.20478-14.52281,65.5587-29.29949C5672.77239,853.95488,5703.83567,807.22157,5703.33045,743.78782Z"/>
        <path class="cls-2" d="M7732.47073,1361.41383c-11.15418-10.54247-12.305-22.69075-9.79288-36.38065q20.00762-109.024,39.33881-218.17129c14.22536-81.06726,27.92417-162.2267,41.83854-243.34822,13.518-78.81379,26.8705-157.65632,40.58784-236.43549q10.95995-62.94633,22.97411-125.70789c5.93861-30.94846,16.08627-39.87526,46.8902-42.80975,6.84351-.65189,13.76842-.61986,20.65571-.62126,153.28374-.03137,306.56915.37562,459.85008-.31949,35.67764-.16177,70.50258,6.05564,102.36972,19.10914,45.8646,18.78751,82.50441,50.91,105.52344,96.505,18.60731,36.85641,24.19844,76.981,28.81167,117.00175,1.94567,16.87932-1.16931,34.86217-4.76368,51.75326-8.51635,40.01579-18.67019,79.524-35.676,117.214-18.5568,41.12976-44.61614,77.24946-77.63351,106.47017-20.75956,18.3718-48.3486,31.673-78.17634,32.22312-41.14245.75868-57.87428,46.12428-41.94576,77.60253,15.84039,31.30322,33.68707,61.687,52.15461,91.54833,26.92327,43.53268,55.2112,86.22221,82.85357,129.31212,4.11756,6.41837,8.07962,12.95183,11.78851,19.613,14.55825,26.14674,6.83116,41.36157-23.24975,45.26824a234.50512,234.50512,0,0,1-29.63462,1.969c-75.87534.16009-151.75123.03014-227.62656.12532-28.91665.03631-33.06958-2.0502-42.93375-30.60251-21.67177-62.73079-42.41786-125.77995-63.91505-188.57172-12.85565-37.54959-26.01668-75.00623-39.80811-112.22071-8.62975-23.28759-16.16541-27.97755-38.88018-27.93949-18.586.03113-24.79741,4.102-28.35923,22.9801-4.35,23.05341-7.228,46.4-10.24084,69.68453-2.98362,23.04956-5.137,46.2053-8.02236,69.26853-4.3174,34.51241-8.751,69.01318-13.53153,103.46405-3.31032,23.85527-6.194,47.85521-11.30181,71.34965-4.38083,20.15579-9.55655,22.91491-30.37,22.686-53.631-.59017-107.25859-1.43927-160.89013-1.97464C7785.41573,1361.19963,7759.4709,1361.41383,7732.47073,1361.41383Zm600.39155-618.35925c.18806-3.80861.77074-7.645.50466-11.42171-2.89548-41.10734-16.45844-76.13268-55.92244-95.92925-25.3088-12.6955-52.11812-14.21622-79.43041-9.15758-40.21622,7.44887-66.85768,30.64246-78.35541,70.089-5.7163,19.61068-11.70992,39.299-15.1864,59.36552-5.17179,29.853-6.52466,60.43071-12.77594,90.00966-4.17426,19.75192.18469,34.62077,13.879,47.56314,22.68895,21.44093,50.09443,29.37792,80.95618,26.78212,23.47429-1.97444,43.28741-12.56884,61.89136-25.88669C8300.36473,857.287,8332.62651,809.073,8332.86228,743.05458Z"/>
        <path class="cls-3" d="M3327.51652,1897.81788c2.40317-72.79607,30.88421-135.30579,75.30359-190.73688,57.95792-72.32533,132.83684-119.01266,223.827-138.515,31.413-6.73294,63.01126-12.7065,95.46952-13.18411,25.18727-.37065,50.333-3.088,75.52083-4.24536,7.5598-.34738,15.19062,1.22717,22.80459,1.60525,46.22331,2.29539,92.51622,3.606,138.66009,6.96762,53.51421,3.89854,107.5794,5.60992,154.19678,38.90594,28.77238,20.55055,45.96985,49.16748,49.855,81.72193,4.34125,36.37715-2.70827,73.51382-18.46249,107.65306-9.11926,19.76117-35.13088,25.91571-56.54555,12.04623-35.97207-23.29734-76.01174-35.54712-116.51-47.43844-44.061-12.93753-88.788-21.25835-134.72581-19.67916-45.91119,1.57834-90.82485,10.80391-134.56583,24.38446-12.5149,3.88537-24.441,12.33207-34.39269,21.19989-17.73076,15.79842-25.23667,36.58056-19.2453,60.18,6.26559,24.678,24.94588,38.85282,47.93432,44.46821,19.197,4.68932,39.73485,5.20969,59.68157,5.237,33.51725.0457,67.10328-3.47784,100.53156-2.18071,21.45817.83256,42.93711,6.622,63.963,11.94011,41.40209,10.47167,80.45573,26.14084,114.31878,53.37135,33.47572,26.91887,53.57821,61.9637,66.84871,101.95622a274.42651,274.42651,0,0,1,10.57541,126.49027c-14.28009,95.74729-56.678,179.11807-135.51368,238.51667-36.01108,27.13252-77.16393,47.78989-122.13652,58.36039-36.22581,8.51484-72.05193,21.52316-108.73019,24.65769-53.2268,4.54816-106.62061,13.33187-160.68579,4.78984-25.10448-3.96583-51.23651-.96083-76.673-3.45219-23.75468-2.32623-47.41647-6.80794-70.73778-12.03684-30.34727-6.8043-60.488-14.68746-90.40383-23.20594-30.83341-8.7795-51.89863-28.25371-60.35071-59.98036-.37808-1.4198-2.15449-2.62567-2.18509-3.95686q-1.20537-52.11306-2.13315-104.23213c-.21444-11.46951-.63153-22.95192-.29977-34.40951.21837-7.54013.21893-15.54833,2.72539-22.47781,9.11757-25.2103,34.07216-33.73228,58.25039-20.121,25.91535,14.58919,51.31763,30.09,77.27424,44.6032a335.51,335.51,0,0,0,110.80665,38.452c38.60484,6.15061,77.8224,8.59726,117.78628.953,32.8397-6.28155,66.04372-10.08645,97.33632-22.43618,42.78414-16.88458,64.33354-65.08955,50.91681-106.42434-12.06863-37.17971-37.95928-53.75013-71.35809-57.04111-34.58215-3.40775-69.276-5.668-103.88006-8.87412-24.89452-2.30661-49.75789.23032-74.85955-2.32736-45.89547-4.67628-88.82782-15.50249-127.95051-40.64634-45.80341-29.43687-75.67942-69.94583-87.12831-123.1655C3329.28536,1929.96523,3329.13239,1913.73462,3327.51652,1897.81788Z"/>
        <path class="cls-3" d="M5872.11944,2346.77359c0-28.21684-.59448-56.45317.3312-84.63959a66.82233,66.82233,0,0,1,7.24769-28.07456c8.271-15.70155,24.52234-20.98835,41.86829-14.83451,9.93266,3.524,20.06348,7.4926,28.78305,13.25645,42.75355,28.2596,88.47219,50.48368,137.43492,65.086,22.91911,6.83514,47.14842,10.73382,71.04485,12.55833,58.30035,4.45129,115.533-4.36242,170.68189-22.71851,47.82935-15.92,73.03767-65.69108,58.93525-109.553-10.55409-32.82612-38.80665-52.61-73.84378-57.99114-44.51-6.836-89.23115-8.38068-133.895-8.60427a475.08836,475.08836,0,0,1-102.00316-11.36269c-31.01893-6.962-58.89033-22.59613-84.12111-41.95777-42.5683-32.6666-68.979-75.70632-75.04565-129.0565-5.61245-49.359,4.3393-96.81984,24.58971-142.24369,30.45589-68.31884,78.13368-122.44649,139.97788-163.06648,43.55292-28.60557,91.92735-46.90321,143.92253-57.05106,52.30786-10.20911,104.90482-13.27579,157.72126-15.17768,20.50022-.73836,41.12562,2.80524,61.72351,3.79186,34.00817,1.62839,68.192,1.2126,102.02562,4.49377,44.217,4.28812,89.27213,4.21087,130.72108,25.24422,36.32208,18.43152,61.54388,45.57272,70.4369,84.97114,3.90649,17.30793,2.58842,36.44373.29528,54.3211-2.49917,19.47771-8.04987,38.70926-13.77235,57.594-7.69453,25.3924-21.20584,30.46933-49.94679,20.00663-29.16252-10.61635-57.3814-23.81125-86.0752-35.727-37.16973-15.43464-75.37909-26.366-115.96749-28.14928-17.3785-.76344-34.6874-5.07147-52.00191-4.91418-44.69024.4057-88.58,8.49507-131.13257,21.3576-17.38805,5.25623-34.03005,13.89765-47.96744,28.55314-28.0544,29.499-18.7005,79.86827,22.39592,97.11957,20.86005,8.75679,42.39429,7.91273,63.63157,8.27427,35.02422.59635,70.15116-3.26547,105.12879-2.09408,21.541.72139,43.04658,6.58813,64.28162,11.40559a307.176,307.176,0,0,1,101.34244,42.83392c44.28437,29.1038,69.9895,71.67838,83.58221,121.83978,5.56193,20.52559,8.79142,41.6938,12.74282,62.6335a45.42154,45.42154,0,0,1,.16672,13.74219c-8.72069,70.94045-23.20484,139.89237-65.3235,200.11624-39.70369,56.76985-91.55292,97.55525-155.55274,123.98853a538.358,538.358,0,0,1-148.3988,38.0431c-53.92793,5.751-108.223,14.12476-163.172,5.39712-25.0837-3.98405-51.2003-1.004-76.61352-3.53406-21.54715-2.14455-42.89277-7.07149-64.08458-11.84338-31.35182-7.06-62.67276-14.39924-93.67036-22.85043-39.26079-10.704-66.691-32.48786-64.46125-93.65251.33457-9.16809.046-18.3589.046-27.53905Q5874.12434,2346.76967,5872.11944,2346.77359Z"/>
        <path class="cls-2" d="M7760.12881,496.70738c-5.81341,29.80339-10.88809,56.49432-16.23839,83.13q-30.9423,154.03828-61.99408,308.0545c-9.707,48.44154-19.44262,96.88251-28.46307,145.45393-5.57372,30.01569-6.83116,61.14138-15.26051,90.2566-21.14634,73.03873-54.8828,139.00513-117.61956,186.46362-43.40361,32.83314-90.04119,58.42628-144,69.29538-30.8045,6.20486-61.18292,16.11734-92.25294,19.01356-42.34433,3.947-85.3881,6.03734-127.73355,3.12949-81.0589-5.56632-159.16283-23.20986-225.99581-73.81971-45.8921-34.75254-75.1102-79.69864-84.19185-136.89437-2.91569-18.362-6.79747-36.928-6.47133-55.33408.26216-14.77465,6.93277-29.32346,9.52624-44.1872,19.49427-111.74162,38.44626-223.578,58.04886-335.30063q20.50275-116.853,42.55933-233.42811c2.51544-13.157,8.63817-26.16173,15.49908-37.82543,9.739-16.5571,24.1322-25.17578,45.1236-24.81473,62.80862,1.08023,125.64754.39819,188.47468.45507,28.97222.02625,45.73268,20.38422,44.78454,49.00974-1.48647,44.89048-13.16439,88.036-19.92819,131.98391-6.71945,43.66032-16.6813,86.82059-25.12973,130.21806-10.74438,55.194-22.23481,110.2612-31.81606,165.6571-7.40263,42.80071-13.943,85.8782-17.91236,129.10339-3.22612,35.12915,1.63579,69.92887,19.41287,101.66534,21.82614,38.961,56.952,57.834,106.45584,54.47782,74.80483-5.07105,144.082-73.73068,157.64155-151.964,17.8203-102.82228,39.967-204.89584,60.21514-307.29911,16.38547-82.86928,33.34128-165.63383,48.741-248.6859,5.68543-30.66241,20.21673-51.97329,50.1848-61.76689,5.03089-1.64419,10.375-3.21546,15.59-3.267,29.87489-.29513,59.8744-1.78764,89.6.34794C7728.60466,452.10786,7750.00192,470.57965,7760.12881,496.70738Z"/>
        <path class="cls-2" d="M4669.91778,1365.73741c-94.26849-.00014-188.53754.1629-282.80463-.20256-12.049-.04668-24.22567-2.16081-36.09333-4.55307-13.72435-2.76641-15.94676-6.67617-13.54668-20.668,5.78675-33.73592,11.596-67.4703,17.75518-101.13964,8.2121-44.89016,17.0358-89.66985,25.10643-134.5849,11.84774-65.93444,23.26968-131.94535,34.85834-197.92626q20.74358-118.105,41.50061-236.20769c10.10134-56.90955,19.59727-113.95217,31.177-170.56522,7.87473-38.49846,7.8461-42.04563,51.09393-42.0498q267.86144-.02567,535.72288-.039c5.36489-.00031,10.73315-.10191,16.09412.05124,30.672.87609,46.934,13.87792,51.98844,43.94763,6.54094,38.91337,1.025,76.0799-20.31946,110.02306-18.46136,29.35886-42.16244,39.1022-76.75947,33.21612-15.56139-2.6474-31.43434-3.4653-47.16414-5.12755-28.06731-2.96617-56.10937-6.20823-84.21205-8.78637-11.34335-1.04052-22.8175-.7406-34.23383-.87125-19.8176-.22675-39.74074.92025-59.43205-.73183-34.58523-2.90162-55.3055,7.27819-69.65156,38.79709-16.81658,36.94763-21.49269,75.868-14.4993,115.85983,4.04683,23.14285,14.45383,28.24348,39.4,31.69918,40.425,5.6,79.486-3.9481,119.17846-5.74562,29.56221-1.33884,59.39275,1.78224,89.00155,4.17015,5.73483.46247,12.20953,5.72109,16.19517,10.53974,5.72472,6.92156,11.16428,14.94939,13.783,23.4134,11.57014,37.40036,11.41745,74.75951-4.05525,111.28637a63.26306,63.26306,0,0,1-9.40667,15.7045c-7.84384,9.40522-16.15418,15.83936-30.731,14.62627-21.1688-1.76171-42.69574,1.3572-64.029.80858-22.543-.57973-45.068-2.69323-67.54535-4.74315-20.35875-1.85668-40.64453-4.50765-60.95725-6.85463-8.23736-.95171-16.45058-2.12366-24.693-3.02694-32.90678-3.60612-46.596,1.90252-59.65687,29.80164-22.712,48.51611-25.97121,99.69118-15.68068,151.76967,1.72,8.70493,6.36046,17.1707,11.10758,24.8489,4.92,7.95914,12.11241,12.76146,22.74733,12.67525,39.80475-.322,79.65159,1.26152,119.412-.03169,31.07507-1.01059,62.01093-5.73146,93.07477-7.81531a490.882,490.882,0,0,1,54.62739-.39293c12.0995.53971,21.80144,7.14957,27.16521,18.36072,11.2367,23.48784,19.876,47.34914,12.81523,74.25974-4.99552,19.03908-7.26677,38.86417-13.19358,57.56709-6.3338,19.98911-20.0298,29.39369-43.14145,29.12173C4864.5949,1365.07658,4767.25213,1365.73755,4669.91778,1365.73741Z"/>
        <path class="cls-2" d="M6717.15679,1129.10412c15.74047,24.7001,22.94886,48.26736,18.43218,76.74607-5.83475,36.78971-15.91225,71.39759-35.4677,103.13616-20.631,33.48373-47.986,57.916-87.487,67.2097-23.682,5.57179-46.74817,13.98611-70.57892,18.62007-16.46967,3.20252-33.96887.797-50.65859,3.25986-28.9116,4.26638-57.8625,4.23947-86.79823,2.94682-27.08438-1.20993-54.057-4.75857-81.13133-6.40224-33.23236-2.01726-64.857-11.46377-97.11373-18.46656-79.97437-17.362-136.9297-61.96861-170.5814-136.47733a407.86453,407.86453,0,0,1-34.99953-139.01411c-1.83844-24.89929-5.09432-49.89315-4.29719-74.73518.92063-28.71871,4.314-57.52384,8.90089-85.92614,10.46819-64.83491,26.93337-128.07219,53.18863-188.616,36.3799-83.89115,84.724-158.73519,157.42992-216.296,43.28066-34.26491,92.92376-54.69876,145.64421-67.72838,62.59811-15.47064,126.47779-20.59478,190.98226-18.3268,43.56921,1.5319,87.22655,1.20815,130.72783,3.73155a316.768,316.768,0,0,1,65.982,11.30178c15.407,4.28307,28.151,15.18392,36.10034,30.12977,13.7106,25.77833,18.10659,53.31471,19.68737,82.385,1.27147,23.37962-6.05087,44.34533-10.19818,66.282a44.6689,44.6689,0,0,1-3.74314,10.80321c-13.73305,28.66214-23.06169,38.57917-58.10443,25.15464-35.85728-13.73679-71.73644-27.43594-107.82837-40.53994-49.96138-18.13937-98.20164-14.61386-147.68082,6.11066-62.29441,26.092-102.52859,71.82095-128.30557,131.44826-23.27164,53.83018-44.2361,108.65006-55.941,166.58786-5.03426,24.91878-4.32021,49.74834-5.13025,74.79462-.77018,23.834,2.50085,46.63252,10.83252,68.3588,20.466,53.36357,58.70789,87.88334,114.65,101.26665,22.59745,5.40623,45.69675,11.93647,68.62316,12.15656,71.353.6848,137.42875-19.06852,197.27564-58.47142C6704.62112,1137.20723,6709.71263,1133.939,6717.15679,1129.10412Z"/>
        <path class="cls-2" d="M8724.12962,464.96068c15.58834-9.25147,30.36944-7.54331,45.46491-7.37888,61.29351.66788,122.5988.39995,183.89905.21274,18.33955-.056,36.71-.47155,55.00574-1.6538,14.5532-.9404,19.88666,8.3743,24.93326,19.20376q26.61256,57.10661,53.54172,114.0662c10.41262,22.10268,20.62765,44.30629,31.50283,66.181,10.76627,21.65542,23.472,24.09393,40.18983,6.28323,16.68523-17.776,31.66449-37.16387,47.17705-56.02148,33.4367-40.64515,67.56219-80.76643,99.71843-122.40251,14.55881-18.85182,31.72176-25.86268,54.569-25.80026,53.57091.14638,107.14575-1.1722,160.71835-1.14907,12.71363.00547,26.83738,1.09369,33.03814,15.21151,5.48222,12.48319.77467,23.69816-7.67488,33.67862-45.845,54.14976-91.03648,108.86475-137.56516,162.42135-68.60014,78.96127-138.506,156.76124-194.03156,246.0582-16.12275,25.92917-22.82985,54.96932-30.17184,83.4385-21.42421,83.07555-36.67349,167.43569-47.18491,252.64353-3.91266,31.71922-9.39657,63.24738-14.30732,94.84043-2.21792,14.27265-9.64076,20.10631-24.77046,20.10925q-119.52959.0225-239.05861.02986c-22.23874-.02215-25.864-3.36121-21.253-25.59454,8.6494-41.70306,19.00645-83.05,28.4148-124.599,11.912-52.60327,24.31127-105.11458,34.9563-157.97587,3.55788-17.67,2.77535-36.28231,3.25138-54.48287.54957-21.00188-.06119-42.03383.47042-63.03654.93578-37.00581-9.13385-72.01819-19.30172-106.90812-16.299-55.9286-40.97966-108.53762-66.87116-160.47355C8785.1475,604.37972,8750.12665,537.576,8724.12962,464.96068Z"/>
        <path class="cls-3" d="M5446.26462,2485.61275q-127.571-.00084-255.14094-.12476a185.07991,185.07991,0,0,1-31.86434-2.84632c-23.91439-4.26582-38.3003-18.04264-41.0706-42.06277-1.90581-16.52191-2.64175-33.91354.32783-50.14471,23.0993-126.25686,47.41-252.29167,70.97917-378.46371,21.09133-112.90733,41.67631-225.90873,62.5807-338.851,3.73191-20.16589,6.59146-40.6291,12.22862-60.27518,8.586-29.92472,24.245-48.58221,67.6913-49.18627,52.09061-.72433,104.20087-.32522,156.29934.02173,9.71205.06463,19.39884,2.29231,29.11762,3.33122,34.5931,3.69752,53.57765,32.599,47.32974,67.9182-6.8873,38.93861-13.67692,77.91619-21.72285,116.625-25.78035,124.03605-52.43473,247.89126-78.06239,371.95843-8.0173,38.815-14.66939,77.95909-20.48449,117.16882-7.47673,50.41582,8.97105,69.46514,59.60943,71.22824,48.72584,1.6968,96.84821-3.91326,144.91-11.40474,28.91216-4.50667,58.08872-7.88288,87.27539-9.90729,27.5329-1.90988,45.69618,14.59283,49.63242,42.96023a251.294,251.294,0,0,1-8.34458,108.77356c-7.32684,24.09919-22.3729,39.43458-48.81958,41.14371-9.11813.58934-18.21942,2.02708-27.33025,2.04418Q5573.83508,2485.75868,5446.26462,2485.61275Z"/>
      </g>
    </g>
  </g>
</svg>
